<svg id="Capa_1" enable-background="new 0 0 512 512" height="512" viewBox="0 0 512 512" width="512" xmlns="http://www.w3.org/2000/svg"><g><path d="m422.96 161.07-22.01 309.13c-1.67 23.44-21.39 41.8-44.89 41.8h-200.12c-23.5 0-43.22-18.36-44.89-41.8l-22.01-309.13c-.626-8.677 6.259-16.07 14.96-16.07h304c8.699 0 15.586 7.391 14.96 16.07z" fill="#afea93"/><path d="m422.96 161.07-22.01 309.13c-1.67 23.44-21.39 41.8-44.89 41.8h-100.06v-367h152c8.699 0 15.586 7.391 14.96 16.07z" fill="#00da80"/><path d="m272 0h-32c-43.672 0-79 36.336-79 80 0 8.28 6.72 15 15 15h160c8.28 0 15-6.72 15-15 0-43.674-35.336-80-79-80zm-78.75 66c6.26-20.27 24.85-36 46.75-36h32c21.9 0 40.49 15.73 46.75 36z" fill="#d0d5f4"/><path d="m351 80c0 8.28-6.72 15-15 15h-80v-29h62.75c-6.26-20.27-24.85-36-46.75-36h-16v-30h16c43.672 0 79 36.336 79 80z" fill="#b4b9f1"/><path d="m463 160c0 8.28-6.72 15-15 15h-384c-8.28 0-15-6.72-15-15 0-52.38 42.62-95 95-95h224c52.38 0 95 42.62 95 95z" fill="#5e54ac"/><path d="m463 160c0 8.28-6.72 15-15 15h-192v-110h112c52.38 0 95 42.62 95 95z" fill="#453d81"/><path d="m207.987 431c-7.94 0-14.568-6.232-14.969-14.251l-8-160c-.414-8.273 5.958-15.316 14.232-15.73 8.263-.415 15.317 5.959 15.73 14.232l8 160c.428 8.53-6.36 15.749-14.993 15.749z" fill="#00da80"/><path d="m304.013 431c-8.637 0-15.42-7.223-14.994-15.749l8-160c.414-8.274 7.469-14.655 15.73-14.232 8.274.414 14.646 7.457 14.232 15.73l-8 160c-.4 8.019-7.029 14.251-14.968 14.251z" fill="#009859"/></g></svg>